HIERARCHY
ROOT Hips
{
	OFFSET 56.877701 -32.693596 43.373703
	CHANNELS 6 Xposition Yposition Zposition Zrotation Xrotation Yrotation
	JOINT Chest
	{
		OFFSET -0.779999 1.005800 5.403099
		CHANNELS 6 Xposition Yposition Zposition Zrotation Xrotation Yrotation
		JOINT Chest2
		{
			OFFSET 0.000000 0.000000 4.236801
			CHANNELS 6 Xposition Yposition Zposition Zrotation Xrotation Yrotation
			JOINT Neck
			{
				OFFSET 0.000000 0.000000 9.874401
				CHANNELS 6 Xposition Yposition Zposition Zrotation Xrotation Yrotation
				JOINT Head
				{
					OFFSET 0.000000 0.000002 2.173893
					CHANNELS 6 Xposition Yposition Zposition Zrotation Xrotation Yrotation
					End Site
					{
						OFFSET 0.000000 0.000000 6.508102
					}
				}
			}
			JOINT LeftCollar
			{
				OFFSET 2.681599 -0.377600 5.432499
				CHANNELS 6 Xposition Yposition Zposition Zrotation Xrotation Yrotation
				JOINT LeftShoulder
				{
					OFFSET 5.161499 0.000000 0.000000
					CHANNELS 6 Xposition Yposition Zposition Zrotation Xrotation Yrotation
					JOINT LeftElbow
					{
						OFFSET 0.000000 0.000000 -10.869099
						CHANNELS 6 Xposition Yposition Zposition Zrotation Xrotation Yrotation
						JOINT LeftWrist
						{
							OFFSET 0.000000 0.000000 -13.344799
							CHANNELS 6 Xposition Yposition Zposition Zrotation Xrotation Yrotation
							End Site
							{
								OFFSET 0.000000 0.000000 -2.173901
							}
						}
					}
				}
			}
			JOINT RightCollar
			{
				OFFSET -2.381901 -1.419600 6.136600
				CHANNELS 6 Xposition Yposition Zposition Zrotation Xrotation Yrotation
				JOINT RightShoulder
				{
					OFFSET -4.550499 0.000000 0.000000
					CHANNELS 6 Xposition Yposition Zposition Zrotation Xrotation Yrotation
					JOINT RightElbow
					{
						OFFSET 0.000000 0.000000 -11.106499
						CHANNELS 6 Xposition Yposition Zposition Zrotation Xrotation Yrotation
						JOINT RightWrist
						{
							OFFSET 0.000000 0.000000 -12.874298
							CHANNELS 6 Xposition Yposition Zposition Zrotation Xrotation Yrotation
							End Site
							{
								OFFSET 0.000000 0.000000 -2.173901
							}
						}
					}
				}
			}
		}
	}
	JOINT LeftHip
	{
		OFFSET 2.431900 0.469601 -2.489399
		CHANNELS 6 Xposition Yposition Zposition Zrotation Xrotation Yrotation
		JOINT LeftKnee
		{
			OFFSET 0.000000 -0.000004 -18.200201
			CHANNELS 6 Xposition Yposition Zposition Zrotation Xrotation Yrotation
			JOINT LeftAnkle
			{
				OFFSET 0.000000 0.000000 -16.279900
				CHANNELS 6 Xposition Yposition Zposition Zrotation Xrotation Yrotation
				End Site
				{
					OFFSET 0.000000 -8.394100 0.000000
				}
			}
		}
	}
	JOINT RightHip
	{
		OFFSET -1.987999 -0.073502 -2.713001
		CHANNELS 6 Xposition Yposition Zposition Zrotation Xrotation Yrotation
		JOINT RightKnee
		{
			OFFSET 0.000000 -0.000004 -19.547802
			CHANNELS 6 Xposition Yposition Zposition Zrotation Xrotation Yrotation
			JOINT RightAnkle
			{
				OFFSET 0.000000 0.000000 -14.881199
				CHANNELS 6 Xposition Yposition Zposition Zrotation Xrotation Yrotation
				End Site
				{
					OFFSET 0.000000 -7.922699 0.000000
				}
			}
		}
	}
}
MOTION
Frames: 4
Frame Time: 0.041667
54.157700 -40.666897 44.117302 1778.823212 12.837882 3.029606 -0.779996 1.005803 5.403097 21.836347 -11.164291 -6.010905 0.000003 -0.000008 4.236804 -19.371248 -3.051645 -2.004331 0.000002 -0.000002 9.874399 -41.929790 5.867449 21.254326 0.000005 -0.000009 2.173887 -2.810293 1.289520 -4.004569 2.681605 -0.377601 5.432507 12.626014 -6.926206 -13.352864 5.161520 0.000005 0.000000 126.766549 -106.502921 34.064496 -0.000001 -0.000006 -10.869113 42.830381 -2.735307 -2.480586 -0.000007 0.000006 -13.344806 191.696895 5.120130 -20.549427 -2.381903 -1.419607 6.136595 -11.798876 -28.959575 40.101834 -4.550499 0.000002 0.000007 -800.570953 -493.108294 -374.573503 -0.000006 -0.000015 -11.106499 -98.827127 -61.486121 -101.192770 0.000002 0.000005 -12.874295 -773.914911 -2.977099 -10.260261 2.431898 0.469599 -2.489395 3.655611 -14.539692 -0.168458 -0.000011 -0.000005 -18.200197 17.011647 21.508013 9.646345 0.000002 -0.000002 -16.279902 -14.250376 26.225760 -1.217671 -1.987997 -0.073503 -2.713003 -150.914587 -10.479919 -120.055956 -0.000005 -0.000013 -19.547792 -696.371718 134.607565 38.893474 0.000000 -0.000000 -14.881199 494.366251 159.734506 158.576119
54.120705 -40.670593 44.121300 1778.919928 12.758220 3.066941 -0.779995 1.005803 5.403103 21.716971 -11.146047 -5.989486 0.000004 -0.000003 4.236794 -19.261861 -3.054761 -2.003861 0.000006 -0.000002 9.874399 -41.882126 5.957723 21.271641 0.000001 -0.000003 2.173889 -2.729603 1.242426 -4.039143 2.681598 -0.377600 5.432500 12.505704 -6.851965 -13.495227 5.161500 0.000002 -0.000005 123.557316 -106.055243 30.834411 0.000002 0.000010 -10.869085 43.232946 -2.429065 -2.705159 0.000005 -0.000004 -13.344808 189.045962 5.511225 -20.517542 -2.381903 -1.419606 6.136594 -11.759421 -28.624872 40.068786 -4.550503 -0.000005 0.000004 -800.333044 -493.168290 -373.982172 -0.000003 -0.000010 -11.106483 -98.162604 -61.417116 -100.884271 -0.000000 0.000012 -12.874293 -773.902944 -3.049043 -10.292145 2.431901 0.469596 -2.489394 3.644094 -14.478379 -0.259286 -0.000004 -0.000007 -18.200195 16.901226 21.566136 9.614966 -0.000001 0.000001 -16.279903 -14.414539 26.194971 -1.045981 -1.988001 -0.073499 -2.713003 -150.768038 -10.612856 -119.874219 -0.000002 -0.000004 -19.547792 -696.495208 134.479922 38.790803 0.000001 0.000005 -14.881201 494.481435 159.664278 158.836896
54.078705 -40.675896 44.129700 1779.048226 12.649351 3.099004 -0.779994 1.005796 5.403088 21.560774 -11.100595 -5.939547 -0.000004 -0.000002 4.236804 -19.144508 -3.059696 -2.004968 0.000003 0.000004 9.874400 -41.761867 6.104176 21.221345 0.000000 0.000001 2.173891 -2.702124 1.167409 -4.031268 2.681605 -0.377596 5.432503 12.356764 -6.819836 -13.627069 5.161513 -0.000002 0.000005 119.950006 -105.701842 27.248893 0.000010 0.000001 -10.869106 44.364763 -2.189496 -2.896857 0.000004 0.000004 -13.344799 185.484770 5.941167 -20.447822 -2.381899 -1.419599 6.136597 -11.634474 -28.169993 39.788205 -4.550505 -0.000005 0.000000 -800.447518 -493.502041 -373.567197 -0.000004 -0.000005 -11.106487 -97.593247 -61.489010 -100.551497 0.000005 0.000016 -12.874290 -774.030641 -3.047383 -10.360302 2.431899 0.469603 -2.489400 3.580438 -14.365776 -0.369703 0.000000 -0.000007 -18.200203 16.711434 21.584871 9.627450 -0.000006 -0.000002 -16.279900 -14.480979 26.165034 -0.904484 -1.987998 -0.073500 -2.713004 -150.638251 -10.778354 -119.651172 -0.000006 -0.000009 -19.547798 -696.803496 134.470975 38.843399 0.000005 -0.000005 -14.881193 494.589844 159.658541 158.899556
54.030602 -40.683693 44.141502 1779.220675 12.471902 3.141078 -0.780005 1.005805 5.403099 21.354824 -11.010287 -5.913227 0.000006 0.000001 4.236795 -19.032409 -3.063559 -1.997278 -0.000006 0.000004 9.874398 -41.549414 6.302568 21.132540 0.000006 0.000000 2.173904 -2.691927 1.066464 -3.994859 2.681594 -0.377605 5.432501 12.191299 -6.806978 -13.917386 5.161500 -0.000004 -0.000008 115.920222 -105.264055 23.304875 0.000005 -0.000002 -10.869095 45.677590 -2.004389 -3.059444 0.000010 0.000001 -13.344799 181.473550 6.357485 -20.233073 -2.381915 -1.419600 6.136598 -11.582571 -27.870703 39.757616 -4.550505 -0.000000 -0.000002 -800.616032 -493.554223 -373.318305 -0.000002 -0.000002 -11.106483 -96.994232 -61.598976 -100.109263 0.000007 -0.000002 -12.874301 -774.224673 -3.007136 -10.455393 2.431896 0.469601 -2.489397 3.430479 -14.167972 -0.507100 -0.000003 -0.000003 -18.200195 16.516852 21.578871 9.628017 0.000001 -0.000005 -16.279902 -14.511381 26.117465 -0.755776 -1.988001 -0.073497 -2.713006 -150.531127 -11.010866 -119.362132 -0.000008 -0.000005 -19.547800 -697.031897 134.389299 38.780148 0.000004 0.000005 -14.881195 494.775898 159.635017 159.118450
